<mxfile host="app.diagrams.net" modified="2023-07-05T17:21:10.865Z" agent="Mozilla/5.0 (X11; Ubuntu; Linux x86_64; rv:109.0) Gecko/20100101 Firefox/115.0" etag="0VtsXniiIkdEGU7eyJa5" version="21.5.2" type="device">
  <diagram name="Seite-1" id="wWX4hy-cS7ZLcePuUyz8">
    <mxGraphModel dx="819" dy="442" grid="1" gridSize="10" guides="1" tooltips="1" connect="1" arrows="1" fold="1" page="1" pageScale="1" pageWidth="827" pageHeight="1169" math="0" shadow="0">
      <root>
        <mxCell id="0" />
        <mxCell id="1" parent="0" />
        <mxCell id="wk0iH-n_84iP2YraqdYm-58" value="" style="rounded=0;whiteSpace=wrap;html=1;fillColor=#fff2cc;strokeColor=#d6b656;" vertex="1" parent="1">
          <mxGeometry x="80" y="30" width="510" height="300" as="geometry" />
        </mxCell>
        <mxCell id="wk0iH-n_84iP2YraqdYm-50" value="" style="endArrow=classic;html=1;rounded=0;" edge="1" parent="1">
          <mxGeometry width="50" height="50" relative="1" as="geometry">
            <mxPoint x="480" y="240" as="sourcePoint" />
            <mxPoint x="480" y="300" as="targetPoint" />
          </mxGeometry>
        </mxCell>
        <mxCell id="wk0iH-n_84iP2YraqdYm-49" value="" style="endArrow=classic;html=1;rounded=0;exitX=0.058;exitY=0;exitDx=0;exitDy=0;exitPerimeter=0;" edge="1" parent="1">
          <mxGeometry width="50" height="50" relative="1" as="geometry">
            <mxPoint x="120" y="300" as="sourcePoint" />
            <mxPoint x="120" y="240" as="targetPoint" />
          </mxGeometry>
        </mxCell>
        <mxCell id="wk0iH-n_84iP2YraqdYm-25" value="" style="endArrow=classic;html=1;rounded=0;exitX=0.058;exitY=0;exitDx=0;exitDy=0;exitPerimeter=0;" edge="1" parent="1">
          <mxGeometry width="50" height="50" relative="1" as="geometry">
            <mxPoint x="180" y="300" as="sourcePoint" />
            <mxPoint x="180" y="240" as="targetPoint" />
          </mxGeometry>
        </mxCell>
        <mxCell id="wk0iH-n_84iP2YraqdYm-39" value="" style="endArrow=classic;html=1;rounded=0;" edge="1" parent="1">
          <mxGeometry width="50" height="50" relative="1" as="geometry">
            <mxPoint x="220" y="240" as="sourcePoint" />
            <mxPoint x="220" y="300" as="targetPoint" />
          </mxGeometry>
        </mxCell>
        <mxCell id="wk0iH-n_84iP2YraqdYm-43" value="" style="endArrow=classic;html=1;rounded=0;" edge="1" parent="1">
          <mxGeometry width="50" height="50" relative="1" as="geometry">
            <mxPoint x="280" y="240" as="sourcePoint" />
            <mxPoint x="280" y="300" as="targetPoint" />
          </mxGeometry>
        </mxCell>
        <mxCell id="wk0iH-n_84iP2YraqdYm-44" value="" style="endArrow=classic;html=1;rounded=0;" edge="1" parent="1">
          <mxGeometry width="50" height="50" relative="1" as="geometry">
            <mxPoint x="340" y="240" as="sourcePoint" />
            <mxPoint x="340" y="300" as="targetPoint" />
          </mxGeometry>
        </mxCell>
        <mxCell id="wk0iH-n_84iP2YraqdYm-6" value="" style="group" vertex="1" connectable="0" parent="1">
          <mxGeometry x="90" y="120" width="40" height="120" as="geometry" />
        </mxCell>
        <mxCell id="wk0iH-n_84iP2YraqdYm-2" value="" style="rounded=0;whiteSpace=wrap;html=1;fillColor=#e1d5e7;strokeColor=#9673a6;" vertex="1" parent="wk0iH-n_84iP2YraqdYm-6">
          <mxGeometry width="40" height="120" as="geometry" />
        </mxCell>
        <mxCell id="wk0iH-n_84iP2YraqdYm-3" value="GAM Speicher" style="text;html=1;strokeColor=none;fillColor=none;align=center;verticalAlign=middle;whiteSpace=wrap;rounded=0;rotation=-90;" vertex="1" parent="wk0iH-n_84iP2YraqdYm-6">
          <mxGeometry x="-30" y="45" width="100" height="30" as="geometry" />
        </mxCell>
        <mxCell id="wk0iH-n_84iP2YraqdYm-7" value="" style="group;fillColor=#e1d5e7;strokeColor=#9673a6;" vertex="1" connectable="0" parent="1">
          <mxGeometry x="150" y="120" width="40" height="120" as="geometry" />
        </mxCell>
        <mxCell id="wk0iH-n_84iP2YraqdYm-8" value="" style="rounded=0;whiteSpace=wrap;html=1;fillColor=#e1d5e7;strokeColor=#9673a6;" vertex="1" parent="wk0iH-n_84iP2YraqdYm-7">
          <mxGeometry width="40" height="120" as="geometry" />
        </mxCell>
        <mxCell id="wk0iH-n_84iP2YraqdYm-9" value="RES Speicher" style="text;html=1;strokeColor=none;fillColor=none;align=center;verticalAlign=middle;whiteSpace=wrap;rounded=0;rotation=-90;" vertex="1" parent="wk0iH-n_84iP2YraqdYm-7">
          <mxGeometry x="-30" y="45" width="100" height="30" as="geometry" />
        </mxCell>
        <mxCell id="wk0iH-n_84iP2YraqdYm-14" value="Lese-Bus" style="rounded=0;whiteSpace=wrap;html=1;fillColor=#DAE8FC;strokeColor=#6c8ebf;" vertex="1" parent="1">
          <mxGeometry x="90" y="260" width="480" height="20" as="geometry" />
        </mxCell>
        <mxCell id="wk0iH-n_84iP2YraqdYm-16" value="Schreib-Bus" style="rounded=0;whiteSpace=wrap;html=1;fillColor=#DAE8FC;strokeColor=#6c8ebf;" vertex="1" parent="1">
          <mxGeometry x="90" y="300" width="480" height="20" as="geometry" />
        </mxCell>
        <mxCell id="wk0iH-n_84iP2YraqdYm-18" value="" style="endArrow=classic;html=1;rounded=0;exitX=0.058;exitY=0;exitDx=0;exitDy=0;exitPerimeter=0;" edge="1" parent="1">
          <mxGeometry width="50" height="50" relative="1" as="geometry">
            <mxPoint x="100" y="240" as="sourcePoint" />
            <mxPoint x="100" y="260" as="targetPoint" />
          </mxGeometry>
        </mxCell>
        <mxCell id="wk0iH-n_84iP2YraqdYm-22" value="" style="group" vertex="1" connectable="0" parent="1">
          <mxGeometry x="210" y="120" width="40" height="120" as="geometry" />
        </mxCell>
        <mxCell id="wk0iH-n_84iP2YraqdYm-23" value="" style="rounded=0;whiteSpace=wrap;html=1;fillColor=#f8cecc;strokeColor=#b85450;" vertex="1" parent="wk0iH-n_84iP2YraqdYm-22">
          <mxGeometry width="40" height="120" as="geometry" />
        </mxCell>
        <mxCell id="wk0iH-n_84iP2YraqdYm-24" value="Rho Puffer" style="text;html=1;strokeColor=none;fillColor=none;align=center;verticalAlign=middle;whiteSpace=wrap;rounded=0;rotation=-90;" vertex="1" parent="wk0iH-n_84iP2YraqdYm-22">
          <mxGeometry x="-30" y="45" width="100" height="30" as="geometry" />
        </mxCell>
        <mxCell id="wk0iH-n_84iP2YraqdYm-27" value="" style="endArrow=classic;html=1;rounded=0;exitX=0.058;exitY=0;exitDx=0;exitDy=0;exitPerimeter=0;" edge="1" parent="1">
          <mxGeometry width="50" height="50" relative="1" as="geometry">
            <mxPoint x="160" y="240" as="sourcePoint" />
            <mxPoint x="160" y="260" as="targetPoint" />
          </mxGeometry>
        </mxCell>
        <mxCell id="wk0iH-n_84iP2YraqdYm-30" value="" style="rounded=0;whiteSpace=wrap;html=1;fillColor=#d5e8d4;strokeColor=#82b366;" vertex="1" parent="1">
          <mxGeometry x="270" y="120" width="40" height="120" as="geometry" />
        </mxCell>
        <mxCell id="wk0iH-n_84iP2YraqdYm-31" value="Gamma" style="text;html=1;strokeColor=none;fillColor=none;align=center;verticalAlign=middle;whiteSpace=wrap;rounded=0;rotation=-90;" vertex="1" parent="1">
          <mxGeometry x="260" y="165" width="60" height="30" as="geometry" />
        </mxCell>
        <mxCell id="wk0iH-n_84iP2YraqdYm-32" value="" style="rounded=0;whiteSpace=wrap;html=1;fillColor=#f8cecc;strokeColor=#b85450;" vertex="1" parent="1">
          <mxGeometry x="270" y="220" width="40" height="20" as="geometry" />
        </mxCell>
        <mxCell id="wk0iH-n_84iP2YraqdYm-35" value="" style="rounded=0;whiteSpace=wrap;html=1;fillColor=#f8cecc;strokeColor=#b85450;" vertex="1" parent="1">
          <mxGeometry x="330" y="120" width="40" height="120" as="geometry" />
        </mxCell>
        <mxCell id="wk0iH-n_84iP2YraqdYm-36" value="Einlesemodul" style="text;html=1;strokeColor=none;fillColor=none;align=center;verticalAlign=middle;whiteSpace=wrap;rounded=0;rotation=-90;" vertex="1" parent="1">
          <mxGeometry x="320" y="165" width="60" height="30" as="geometry" />
        </mxCell>
        <mxCell id="wk0iH-n_84iP2YraqdYm-40" value="" style="endArrow=classic;html=1;rounded=0;" edge="1" parent="1">
          <mxGeometry width="50" height="50" relative="1" as="geometry">
            <mxPoint x="240" y="260" as="sourcePoint" />
            <mxPoint x="240" y="240" as="targetPoint" />
          </mxGeometry>
        </mxCell>
        <mxCell id="wk0iH-n_84iP2YraqdYm-41" value="" style="endArrow=classic;html=1;rounded=0;" edge="1" parent="1">
          <mxGeometry width="50" height="50" relative="1" as="geometry">
            <mxPoint x="300" y="260" as="sourcePoint" />
            <mxPoint x="300" y="240" as="targetPoint" />
          </mxGeometry>
        </mxCell>
        <mxCell id="wk0iH-n_84iP2YraqdYm-42" value="" style="endArrow=classic;html=1;rounded=0;" edge="1" parent="1">
          <mxGeometry width="50" height="50" relative="1" as="geometry">
            <mxPoint x="360" y="260" as="sourcePoint" />
            <mxPoint x="360" y="240" as="targetPoint" />
          </mxGeometry>
        </mxCell>
        <mxCell id="wk0iH-n_84iP2YraqdYm-45" value="&lt;div&gt;Kommunikations-&lt;/div&gt;&lt;div&gt;modul&lt;/div&gt;" style="whiteSpace=wrap;html=1;aspect=fixed;fillColor=#dae8fc;strokeColor=#6c8ebf;" vertex="1" parent="1">
          <mxGeometry x="450" y="120" width="120" height="120" as="geometry" />
        </mxCell>
        <mxCell id="wk0iH-n_84iP2YraqdYm-46" value="" style="rounded=0;whiteSpace=wrap;html=1;fillColor=#f8cecc;strokeColor=#b85450;" vertex="1" parent="1">
          <mxGeometry x="390" y="120" width="40" height="120" as="geometry" />
        </mxCell>
        <mxCell id="wk0iH-n_84iP2YraqdYm-47" value="Ergebnismodul" style="text;html=1;strokeColor=none;fillColor=none;align=center;verticalAlign=middle;whiteSpace=wrap;rounded=0;rotation=-90;" vertex="1" parent="1">
          <mxGeometry x="380" y="165" width="60" height="30" as="geometry" />
        </mxCell>
        <mxCell id="wk0iH-n_84iP2YraqdYm-48" value="" style="endArrow=classic;html=1;rounded=0;" edge="1" parent="1">
          <mxGeometry width="50" height="50" relative="1" as="geometry">
            <mxPoint x="409.86" y="260" as="sourcePoint" />
            <mxPoint x="409.86" y="240" as="targetPoint" />
          </mxGeometry>
        </mxCell>
        <mxCell id="wk0iH-n_84iP2YraqdYm-51" value="" style="endArrow=classic;html=1;rounded=0;" edge="1" parent="1">
          <mxGeometry width="50" height="50" relative="1" as="geometry">
            <mxPoint x="540" y="260" as="sourcePoint" />
            <mxPoint x="540" y="240" as="targetPoint" />
          </mxGeometry>
        </mxCell>
        <mxCell id="wk0iH-n_84iP2YraqdYm-52" value="" style="endArrow=classic;html=1;rounded=0;" edge="1" parent="1">
          <mxGeometry width="50" height="50" relative="1" as="geometry">
            <mxPoint x="490" y="120" as="sourcePoint" />
            <mxPoint x="360" y="120" as="targetPoint" />
            <Array as="points">
              <mxPoint x="490" y="80" />
              <mxPoint x="360" y="80" />
            </Array>
          </mxGeometry>
        </mxCell>
        <mxCell id="wk0iH-n_84iP2YraqdYm-53" value="" style="endArrow=classic;html=1;rounded=0;" edge="1" parent="1">
          <mxGeometry width="50" height="50" relative="1" as="geometry">
            <mxPoint x="420" y="120" as="sourcePoint" />
            <mxPoint x="470" y="120" as="targetPoint" />
            <Array as="points">
              <mxPoint x="420" y="100" />
              <mxPoint x="470" y="100" />
            </Array>
          </mxGeometry>
        </mxCell>
        <mxCell id="wk0iH-n_84iP2YraqdYm-54" value="" style="endArrow=classic;html=1;rounded=0;startArrow=classic;startFill=1;" edge="1" parent="1">
          <mxGeometry width="50" height="50" relative="1" as="geometry">
            <mxPoint x="520" y="120" as="sourcePoint" />
            <mxPoint x="300" y="120" as="targetPoint" />
            <Array as="points">
              <mxPoint x="520" y="60" />
              <mxPoint x="300" y="60" />
            </Array>
          </mxGeometry>
        </mxCell>
        <mxCell id="wk0iH-n_84iP2YraqdYm-55" value="Zustandsautomat" style="rounded=0;whiteSpace=wrap;html=1;fillColor=#f8cecc;strokeColor=#b85450;" vertex="1" parent="1">
          <mxGeometry x="130" y="40" width="120" height="60" as="geometry" />
        </mxCell>
        <mxCell id="wk0iH-n_84iP2YraqdYm-56" value="" style="endArrow=classic;html=1;rounded=0;" edge="1" parent="1">
          <mxGeometry width="50" height="50" relative="1" as="geometry">
            <mxPoint x="630" y="164.52" as="sourcePoint" />
            <mxPoint x="570" y="164.52" as="targetPoint" />
          </mxGeometry>
        </mxCell>
        <mxCell id="wk0iH-n_84iP2YraqdYm-57" value="" style="endArrow=classic;html=1;rounded=0;" edge="1" parent="1">
          <mxGeometry width="50" height="50" relative="1" as="geometry">
            <mxPoint x="570" y="200" as="sourcePoint" />
            <mxPoint x="630" y="200" as="targetPoint" />
          </mxGeometry>
        </mxCell>
      </root>
    </mxGraphModel>
  </diagram>
</mxfile>
